<svg xmlns="http://www.w3.org/2000/svg">
	<g>
		<path fill="#E87513" d="M34.53 2.064l-.244-.278c-4.8-4.8-21.461.452-30.713 11.235-4.905 5.704-4.765 13.774.452 19.026 1.809 1.809 4.174 1.148 5.322 0 .521-.522 1.148-1.357 1.704-2.4-1.009-.383-1.983-.974-2.817-1.809-3.061-3.06-3.061-8.07 0-11.13 3.06-3.061 8.07-3.061 11.13 0 .661.66 1.183 1.426 1.565 2.226.8-.313 1.6-.591 2.4-.904 8.105-3.34 11.34-7.618 11.93-11.096.349-1.635.21-3.652-.73-4.87z" />
		<path fill="#009391" d="M34.495 2.03c.939 1.217 1.078 3.2.73 4.834-.626 3.479-3.826 7.757-11.93 11.096-.8.313-1.6.626-2.4.904 1.39 2.922.904 6.54-1.53 8.974-2.262 2.261-5.566 2.852-8.384 1.774-.556 1.044-1.147 1.844-1.67 2.365-1.147 1.148-3.512 1.81-5.32 0l.034.035c5.217 5.183 13.287 5.287 18.956.418 10.61-9.044 15.861-25.287 11.514-30.4z" />
		<path fill="#83C8D5" d="M19.364 27.838c2.435-2.434 2.922-6.017 1.53-8.974-2.086.8-4.243 1.74-6.26 4-2.087 2.4-2.992 5.566-3.653 6.748 2.818 1.078 6.122.487 8.383-1.774z" />
	</g>
</svg>